HIERARCHY
ROOT Hips
{
 OFFSET 0.000000 0.000000 0.000000
 CHANNELS 6 Xposition Yposition Zposition Yrotation Xrotation Zrotation
 JOINT Chest
 {
  OFFSET 0.000000 9.585900 0.002600
  CHANNELS 3 Yrotation Xrotation Zrotation
  JOINT Chest2
  {
   OFFSET 0.000000 9.601200 -0.005300
   CHANNELS 3 Yrotation Xrotation Zrotation
   JOINT Chest3
   {
    OFFSET 0.000000 9.561800 0.000000
    CHANNELS 3 Yrotation Xrotation Zrotation
    JOINT Chest4
    {
     OFFSET 0.000000 9.552100 0.000000
     CHANNELS 3 Yrotation Xrotation Zrotation
     JOINT Neck
     {
      OFFSET 0.000000 14.453000 0.000000
      CHANNELS 3 Yrotation Xrotation Zrotation
      JOINT Head
      {
       OFFSET 0.000000 8.936500 -0.011300
       CHANNELS 3 Yrotation Xrotation Zrotation
       End Site
       {
        OFFSET 0.000000 17.073600 -0.006000
       }
      }
     }
     JOINT RightCollar
     {
      OFFSET -2.921100 9.558500 0.000000
      CHANNELS 3 Yrotation Xrotation Zrotation
      JOINT RightShoulder
      {
       OFFSET -13.519700 0.000000 0.000000
       CHANNELS 3 Yrotation Xrotation Zrotation
       JOINT RightElbow
       {
        OFFSET 0.000000 -29.696600 0.000000
        CHANNELS 3 Yrotation Xrotation Zrotation
        JOINT RightWrist
        {
         OFFSET 0.000000 -24.004700 0.000000
         CHANNELS 3 Yrotation Xrotation Zrotation
         End Site
         {
          OFFSET 0.000000 -17.728500 0.000000
         }
        }
       }
      }
     }
     JOINT LeftCollar
     {
      OFFSET 2.921100 9.558500 0.000000
      CHANNELS 3 Yrotation Xrotation Zrotation
      JOINT LeftShoulder
      {
       OFFSET 13.519700 0.000000 0.000000
       CHANNELS 3 Yrotation Xrotation Zrotation
       JOINT LeftElbow
       {
        OFFSET 0.000000 -29.696600 0.000000
        CHANNELS 3 Yrotation Xrotation Zrotation
        JOINT LeftWrist
        {
         OFFSET 0.000000 -24.004700 0.000000
         CHANNELS 3 Yrotation Xrotation Zrotation
         End Site
         {
          OFFSET 0.000000 -17.728500 0.000000
         }
        }
       }
      }
     }
    }
   }
  }
 }
 JOINT RightHip
 {
  OFFSET -7.771700 -0.012900 -0.001300
  CHANNELS 3 Yrotation Xrotation Zrotation
  JOINT RightKnee
  {
   OFFSET 0.000000 -40.869800 0.001200
   CHANNELS 3 Yrotation Xrotation Zrotation
   JOINT RightAnkle
   {
    OFFSET 0.000000 -39.717900 0.002100
    CHANNELS 3 Yrotation Xrotation Zrotation
    JOINT RightToe
    {
     OFFSET 0.000000 -4.965400 11.033500
     CHANNELS 3 Yrotation Xrotation Zrotation
     End Site
     {
      OFFSET 0.000000 -1.423100 5.872300
     }
    }
   }
  }
 }
 JOINT LeftHip
 {
  OFFSET 7.771700 -0.012900 -0.001300
  CHANNELS 3 Yrotation Xrotation Zrotation
  JOINT LeftKnee
  {
   OFFSET 0.000000 -40.869800 0.001200
   CHANNELS 3 Yrotation Xrotation Zrotation
   JOINT LeftAnkle
   {
    OFFSET 0.000000 -39.717900 0.002100
    CHANNELS 3 Yrotation Xrotation Zrotation
    JOINT LeftToe
    {
     OFFSET 0.000000 -4.965400 11.033500
     CHANNELS 3 Yrotation Xrotation Zrotation
     End Site
     {
      OFFSET 0.000000 -1.423100 5.872300
     }
    }
   }
  }
 }
}
MOTION
Frames: 14
Frame Time: 0.008333
-114.269311 62.030069 19.176637 176.043182 -51.852412 -0.383494 4.051880 27.221001 1.240001 0.576304 4.694593 0.224452 0.923985 7.425315 0.372700 2.987005 22.021413 1.506252 3.106131 15.567125 1.044065 5.403784 -6.851289 0.795957 6.537710 5.523991 4.363473 -6.845804 -6.282432 -13.216578 -114.281723 -60.918359 146.988693 12.743326 -1.014736 0.882961 -9.439160 3.075728 -0.623038 0.099057 -3.730253 15.286356 129.898712 -74.693403 -151.747310 2.109209 -8.174441 -5.809620 3.900904 -15.082953 -5.936006 -1.742499 59.384947 -6.211977 -0.684032 -7.073280 9.647385 0.305780 -0.735545 0.145058 -4.196702 -11.871784 1.971887 29.498130 75.053810 31.631711 1.122145 -11.136852 -5.503165 0.345716 0.884024 0.148849
-114.273262 62.029650 19.176321 176.041555 -51.851223 -0.384676 4.056895 27.215229 1.248638 0.573232 4.698522 0.221360 0.930789 7.409984 0.374522 2.994439 22.005257 1.527145 3.223341 15.595030 1.035891 5.632848 -6.815913 0.760044 6.479591 5.591883 4.378286 -7.069238 -6.454377 -13.232836 -111.114025 -60.059510 144.632274 11.932427 -1.434385 1.771044 -9.442438 3.105509 -0.637988 0.211660 -3.688402 15.168029 129.072551 -74.634656 -150.970708 2.217974 -8.178479 -6.145676 3.902021 -15.082891 -5.933509 -1.743652 59.383482 -6.216124 -0.686546 -7.083376 9.646433 0.305007 -0.729299 0.147492 -4.193946 -11.871590 1.968358 29.508860 75.050391 31.646462 1.125896 -11.142562 -5.503241 0.343306 0.888214 0.148882
-114.277014 62.029730 19.176127 176.051361 -51.852048 -0.397097 4.056224 27.211969 1.255237 0.576428 4.691673 0.222211 0.939101 7.392111 0.375216 2.990035 22.017976 1.533047 3.354732 15.601105 1.042869 5.849373 -6.758599 0.738551 6.432895 5.638444 4.413446 -7.333996 -6.639730 -13.235309 -108.376322 -59.135904 142.677858 11.096846 -1.800652 2.734646 -9.402402 3.135384 -0.611513 0.317127 -3.656264 15.025224 128.492794 -74.588704 -150.425959 2.323811 -8.203738 -6.443943 3.899742 -15.080367 -5.930080 -1.742972 59.384108 -6.212336 -0.694910 -7.092553 9.640535 0.311052 -0.732745 0.148828 -4.198624 -11.869821 1.969567 29.511000 75.048555 31.651920 1.125911 -11.148133 -5.505373 0.356400 0.889892 0.152799
-114.280394 62.030040 19.176331 176.056502 -51.853053 -0.408338 4.081854 27.182125 1.270965 0.583311 4.671286 0.224804 0.918956 7.424758 0.380079 2.994025 22.014776 1.538663 3.483599 15.610453 1.052587 6.054212 -6.678720 0.730151 6.383858 5.678582 4.456598 -7.632037 -6.829458 -13.228224 -106.113491 -58.201794 141.153221 10.242340 -2.125005 3.715105 -9.400429 3.159251 -0.603710 0.480821 -3.610029 14.898532 128.082836 -74.549327 -150.036380 2.425603 -8.255884 -6.723164 3.900157 -15.073933 -5.922991 -1.735104 59.377748 -6.205246 -0.703337 -7.106679 9.641043 0.311212 -0.723927 0.149290 -4.202011 -11.868450 1.972677 29.524849 75.047400 31.667326 1.128495 -11.152217 -5.505971 0.362956 0.891046 0.153244
-114.283181 62.030542 19.176990 176.061546 -51.854088 -0.422453 4.088275 27.177167 1.283428 0.591608 4.652510 0.224824 0.917331 7.428524 0.381814 3.038864 21.931469 1.550919 3.571211 15.704307 1.082214 6.248983 -6.577823 0.732890 6.296784 5.791423 4.514783 -7.958284 -7.020122 -13.206832 -104.346887 -57.295806 140.050993 9.380992 -2.421313 4.668698 -9.408867 3.269806 -0.578394 0.637709 -3.565805 14.753842 127.771110 -74.511684 -149.737134 2.524323 -8.336703 -7.001064 3.896065 -15.071337 -5.912520 -1.727685 59.375421 -6.200230 -0.706777 -7.112635 9.638614 0.310424 -0.722981 0.151665 -4.207029 -11.866853 1.976742 29.526399 75.047214 31.672014 1.147950 -11.153841 -5.519068 0.348085 0.892083 0.162129
-114.286750 62.030572 19.178476 176.069394 -51.850202 -0.432906 4.100627 27.147808 1.292786 0.581591 4.669040 0.226935 0.931418 7.390429 0.382131 3.054348 21.898939 1.563667 3.670855 15.782228 1.109546 6.435786 -6.459984 0.743407 6.211000 5.862539 4.579344 -8.290977 -7.196192 -13.200289 -103.065649 -56.437969 139.344469 8.526917 -2.702030 5.529760 -9.401144 3.354048 -0.561725 0.823890 -3.521894 14.616411 127.485324 -74.467902 -149.467393 2.613956 -8.431325 -7.289484 3.891439 -15.072544 -5.908945 -1.725429 59.370008 -6.198727 -0.710512 -7.118914 9.634817 0.311706 -0.715604 0.156789 -4.213383 -11.870373 1.977946 29.511161 75.046881 31.663379 1.129833 -11.158081 -5.516508 0.369990 0.895693 0.158769
-114.289933 62.031133 19.179987 176.079606 -51.848814 -0.445436 4.114141 27.104175 1.303909 0.579929 4.673696 0.228865 0.938913 7.332450 0.387495 3.044141 21.962451 1.572048 3.778524 15.821454 1.136738 6.618612 -6.328446 0.757288 6.172773 5.879427 4.605617 -8.678702 -7.361846 -13.159880 -102.245140 -55.645590 139.003683 7.672968 -2.990598 6.209190 -9.401892 3.386426 -0.559884 1.067149 -3.476063 14.494857 127.177367 -74.408095 -149.183120 2.684446 -8.517609 -7.600769 3.884325 -15.070617 -5.903545 -1.735338 59.363905 -6.207994 -0.712046 -7.125726 9.627199 0.316613 -0.712876 0.162000 -4.221222 -11.871488 1.980463 29.474378 75.048052 31.629828 1.128821 -11.156875 -5.515542 0.365077 0.894560 0.158625
-114.293226 62.031036 19.182235 176.092440 -51.840769 -0.457229 4.104932 27.061759 1.305730 0.581582 4.637983 0.231565 0.938149 7.379234 0.386476 3.049826 21.956238 1.575081 3.876118 15.864457 1.169709 6.799512 -6.184817 0.769969 6.145652 5.872760 4.623057 -9.089793 -7.502241 -13.112856 -101.820051 -54.925755 138.961761 6.812233 -3.327744 6.662211 -9.366889 3.419948 -0.534926 1.309461 -3.432079 14.347726 126.848937 -74.329572 -148.883048 2.732318 -8.586882 -7.936628 3.874799 -15.075604 -5.900875 -1.740228 59.356610 -6.214130 -0.718633 -7.130049 9.623067 0.325031 -0.713784 0.162047 -4.231046 -11.880026 1.980337 29.438833 75.045325 31.595862 1.131802 -11.151146 -5.515526 0.357682 0.889403 0.159914
-114.294057 62.032620 19.183382 176.092642 -51.843326 -0.470689 4.100666 27.028860 1.320033 0.580573 4.636960 0.232689 0.944607 7.390886 0.383310 3.048682 21.917355 1.584461 3.968174 15.944433 1.199017 6.976963 -6.033022 0.779953 6.123665 5.872170 4.632031 -9.503382 -7.612164 -13.065211 -101.705216 -54.274191 139.131790 5.960800 -3.755238 6.896825 -9.288113 3.501074 -0.495001 1.540791 -3.399938 14.165026 126.558349 -74.238557 -148.615206 2.761097 -8.642236 -8.279233 3.867917 -15.070306 -5.884773 -1.733593 59.348518 -6.212147 -0.722748 -7.129419 9.623440 0.326277 -0.713346 0.160930 -4.237348 -11.876150 1.992742 29.450515 75.043723 31.603829 1.134870 -11.150122 -5.513547 0.353549 0.887128 0.157752
-114.295149 62.034295 19.184246 176.091524 -51.844095 -0.478701 4.094429 27.004602 1.331257 0.577879 4.627818 0.233767 0.941501 7.376792 0.382895 3.041772 21.903345 1.589957 4.063383 16.025143 1.222843 7.146858 -5.878716 0.788397 6.128327 5.903246 4.623462 -9.928704 -7.752262 -12.990193 -101.825617 -53.670499 139.449886 5.151120 -4.253460 6.967332 -9.264242 3.564587 -0.514393 1.851695 -3.346766 14.021139 126.366319 -74.144160 -148.429539 2.779773 -8.687175 -8.603669 3.864051 -15.066778 -5.876140 -1.731510 59.341798 -6.209302 -0.723873 -7.131751 9.617250 0.328266 -0.714274 0.162002 -4.240807 -11.874665 2.000123 29.449917 75.044894 31.599709 1.145234 -11.148009 -5.507927 0.348664 0.883661 0.152791
-114.295889 62.036351 19.184427 176.089270 -51.845178 -0.484768 4.094140 26.993770 1.341167 0.568945 4.608963 0.238443 0.938734 7.359382 0.383952 3.008985 21.825294 1.610628 4.165455 16.171413 1.223099 7.305403 -5.728424 0.796174 6.137041 5.932725 4.588752 -10.344872 -7.822789 -12.909152 -102.091161 -53.071047 139.857605 4.421634 -4.751374 6.961529 -9.144115 3.731527 -0.509155 2.097036 -3.325958 13.809169 126.267376 -74.052257 -148.316487 2.801743 -8.735337 -8.891321 3.861016 -15.063416 -5.867882 -1.731203 59.337556 -6.209579 -0.724510 -7.136057 9.615122 0.327094 -0.715722 0.160143 -4.238223 -11.872341 2.006302 29.421911 75.051115 31.574918 1.158166 -11.149466 -5.505126 0.341329 0.879430 0.150335
-114.297426 62.037800 19.184507 176.093678 -51.838407 -0.488220 4.085658 26.976915 1.342119 0.558644 4.594147 0.242501 0.936068 7.339033 0.385791 2.997416 21.814590 1.614026 4.248273 16.245140 1.241373 7.450663 -5.589898 0.804625 6.133390 5.908023 4.565282 -10.772863 -7.910656 -12.803668 -102.413850 -52.440065 140.300143 3.788622 -5.206797 6.966247 -9.087107 3.809568 -0.506389 2.393337 -3.274380 13.625536 126.216484 -73.962225 -148.233974 2.841789 -8.809916 -9.120820 3.854741 -15.065980 -5.868281 -1.730502 59.332820 -6.210017 -0.728543 -7.147323 9.612177 0.327452 -0.711588 0.159364 -4.233011 -11.878458 2.000378 29.423364 75.048098 31.585850 1.166407 -11.149244 -5.502793 0.329093 0.877174 0.146385
-114.298013 62.037924 19.185064 176.093537 -51.818494 -0.490702 4.068618 26.941348 1.342552 0.563282 4.590730 0.242418 0.924329 7.318584 0.388702 2.998379 21.805712 1.613737 4.322850 16.309395 1.259441 7.580962 -5.469152 0.815432 6.139244 5.938589 4.550813 -11.229196 -8.067410 -12.669626 -102.737615 -51.770657 140.747022 3.250027 -5.613089 7.017702 -9.046760 3.873339 -0.506616 2.700642 -3.210100 13.447600 126.173168 -73.860878 -148.146639 2.906890 -8.921303 -9.275502 3.852047 -15.080497 -5.869055 -1.744941 59.324855 -6.219860 -0.718120 -7.168286 9.604368 0.320331 -0.698360 0.160511 -4.231084 -11.898545 2.002474 29.453295 75.044638 31.619705 1.160764 -11.151957 -5.505009 0.334782 0.874762 0.147526
-114.296133 62.039904 19.183620 176.091902 -51.809976 -0.502515 4.065611 26.917397 1.362088 0.568704 4.591093 0.236550 0.911995 7.280397 0.396993 3.003042 21.817459 1.608114 4.357349 16.357921 1.267699 7.727111 -5.362165 0.829980 6.092771 5.843486 4.508882 -11.671514 -8.107190 -12.515512 -103.079394 -51.072205 141.217684 2.797168 -5.974503 7.091751 -8.923330 3.976101 -0.411280 2.926155 -3.186934 13.186842 126.133330 -73.730046 -148.055883 3.003778 -9.057268 -9.359696 3.851637 -15.085310 -5.857445 -1.750489 59.320645 -6.216920 -0.718862 -7.175883 9.597716 0.318727 -0.699142 0.158281 -4.229937 -11.905409 2.012485 29.498092 75.040899 31.674790 1.152880 -11.151098 -5.515038 0.336130 0.868568 0.149705
